<svg xmlns="http://www.w3.org/2000/svg" width="24" height="24" viewBox="0 0 24 24" fill="none">
  <rect x="0.5" y="0.5" width="23" height="23" rx="11.5" stroke="#CACACA"/>
  <path d="M9.30999 6.70999C9.21729 6.80251 9.14374 6.91239 9.09356 7.03337C9.04338 7.15434 9.01755 7.28402 9.01755 7.41499C9.01755 7.54596 9.04338 7.67564 9.09356 7.79662C9.14374 7.91759 9.21729 8.02748 9.30999 8.11999L13.19 12L9.30999 15.88C9.12301 16.067 9.01797 16.3206 9.01797 16.585C9.01797 16.8494 9.12301 17.103 9.30999 17.29C9.49697 17.477 9.75057 17.582 10.015 17.582C10.2794 17.582 10.533 17.477 10.72 17.29L15.31 12.7C15.4027 12.6075 15.4762 12.4976 15.5264 12.3766C15.5766 12.2556 15.6024 12.126 15.6024 11.995C15.6024 11.864 15.5766 11.7343 15.5264 11.6134C15.4762 11.4924 15.4027 11.3825 15.31 11.29L10.72 6.69999C10.34 6.31999 9.69999 6.31999 9.30999 6.70999Z" fill="#155932"/>
</svg>