<svg xmlns="http://www.w3.org/2000/svg" width="24" height="24" viewBox="0 0 24 24" fill="none">
  <rect x="0.5" y="0.5" width="23" height="23" rx="11.5" stroke="#CACACA"/>
  <path d="M15.31 6.70999C15.4027 6.80251 15.4763 6.91239 15.5264 7.03337C15.5766 7.15434 15.6024 7.28402 15.6024 7.41499C15.6024 7.54596 15.5766 7.67564 15.5264 7.79662C15.4763 7.91759 15.4027 8.02748 15.31 8.11999L11.43 12L15.31 15.88C15.497 16.067 15.602 16.3206 15.602 16.585C15.602 16.8494 15.497 17.103 15.31 17.29C15.123 17.477 14.8694 17.582 14.605 17.582C14.3406 17.582 14.087 17.477 13.9 17.29L9.31 12.7C9.2173 12.6075 9.14375 12.4976 9.09357 12.3766C9.04339 12.2556 9.01756 12.126 9.01756 11.995C9.01756 11.864 9.04339 11.7343 9.09357 11.6134C9.14375 11.4924 9.2173 11.3825 9.31 11.29L13.9 6.69999C14.28 6.31999 14.92 6.31999 15.31 6.70999Z" fill="#155932"/>
</svg>