<svg width="24" height="24" viewBox="0 0 24 24" fill="none" xmlns="http://www.w3.org/2000/svg">
<g id="mingcute:down-fill" clip-path="url(#clip0_362_188)">
<g id="Group">
<path id="Vector" fill-rule="evenodd" clip-rule="evenodd" d="M8.28203 10.9401C8.00113 11.2213 7.84335 11.6026 7.84335 12.0001C7.84335 12.3976 8.00113 12.7788 8.28203 13.0601L13.938 18.7181C14.2194 18.9994 14.601 19.1573 14.9989 19.1572C15.3967 19.1571 15.7783 18.999 16.0595 18.7176C16.3408 18.4362 16.4988 18.0546 16.4987 17.6567C16.4986 17.2589 16.3404 16.8774 16.059 16.5961L11.463 12.0001L16.059 7.4041C16.3324 7.12132 16.4838 6.74249 16.4805 6.34919C16.4773 5.9559 16.3197 5.5796 16.0418 5.30136C15.7638 5.02311 15.3876 4.86518 14.9943 4.86158C14.601 4.85798 14.2221 5.00899 13.939 5.2821L8.28103 10.9391L8.28203 10.9401Z" fill="white"/>
</g>
</g>
<defs>
<clipPath id="clip0_362_188">
<rect width="24" height="24" fill="white" transform="translate(0 24) rotate(-90)"/>
</clipPath>
</defs>
</svg>
