<svg width="24" height="24" viewBox="0 0 24 24" fill="none" xmlns="http://www.w3.org/2000/svg">
<g id="mingcute:down-fill" clip-path="url(#clip0_103_2324)">
<g id="Group">
<path id="Vector" fill-rule="evenodd" clip-rule="evenodd" d="M16.06 10.9401C16.3409 11.2213 16.4987 11.6026 16.4987 12.0001C16.4987 12.3976 16.3409 12.7788 16.06 13.0601L10.404 18.7181C10.1226 18.9994 9.74102 19.1573 9.34316 19.1572C8.9453 19.1571 8.56377 18.999 8.28251 18.7176C8.00125 18.4362 7.84329 18.0546 7.84338 17.6567C7.84348 17.2589 8.00162 16.8774 8.28301 16.5961L12.879 12.0001L8.28301 7.4041C8.00964 7.12132 7.85826 6.74249 7.8615 6.34919C7.86473 5.9559 8.0223 5.5796 8.30028 5.30136C8.57827 5.02311 8.95441 4.86518 9.34771 4.86158C9.741 4.85798 10.12 5.00899 10.403 5.2821L16.061 10.9391L16.06 10.9401Z" fill="white"/>
</g>
</g>
<defs>
<clipPath id="clip0_103_2324">
<rect width="24" height="24" fill="white" transform="translate(0 24) rotate(-90)"/>
</clipPath>
</defs>
</svg>
