<svg width="30" height="30" viewBox="0 0 30 30" fill="none" xmlns="http://www.w3.org/2000/svg">
<g id="material-symbols:category-outline">
<path id="Vector" d="M8.125 13.75L15 2.5L21.875 13.75H8.125ZM21.875 27.5C20.3125 27.5 18.9842 26.9529 17.89 25.8587C16.7958 24.7646 16.2492 23.4367 16.25 21.875C16.25 20.3125 16.7971 18.9842 17.8912 17.89C18.9854 16.7958 20.3133 16.2492 21.875 16.25C23.4375 16.25 24.7658 16.7971 25.86 17.8912C26.9542 18.9854 27.5008 20.3133 27.5 21.875C27.5 23.4375 26.9529 24.7658 25.8587 25.86C24.7646 26.9542 23.4367 27.5008 21.875 27.5ZM3.75 26.875V16.875H13.75V26.875H3.75ZM21.875 25C22.75 25 23.4896 24.6979 24.0938 24.0938C24.6979 23.4896 25 22.75 25 21.875C25 21 24.6979 20.2604 24.0938 19.6562C23.4896 19.0521 22.75 18.75 21.875 18.75C21 18.75 20.2604 19.0521 19.6562 19.6562C19.0521 20.2604 18.75 21 18.75 21.875C18.75 22.75 19.0521 23.4896 19.6562 24.0938C20.2604 24.6979 21 25 21.875 25ZM6.25 24.375H11.25V19.375H6.25V24.375ZM12.5625 11.25H17.4375L15 7.3125L12.5625 11.25Z" fill="#00a6cc"/>
</g>
</svg>
