<svg width="30" height="30" viewBox="0 0 30 30" fill="none" xmlns="http://www.w3.org/2000/svg">
<g id="fluent:chat-32-filled">
<path id="Vector" d="M1.87501 15C1.87501 7.75125 7.75126 1.875 15 1.875C22.2488 1.875 28.125 7.75125 28.125 15C28.125 22.2488 22.2488 28.125 15 28.125C12.78 28.125 10.6856 27.5728 8.85001 26.5978L3.66751 28.0716C3.42665 28.1398 3.17193 28.1426 2.92965 28.0795C2.68738 28.0164 2.46634 27.8898 2.28936 27.7127C2.11238 27.5356 1.98588 27.3145 1.92293 27.0722C1.85998 26.8299 1.86285 26.5752 1.93126 26.3344L3.40501 21.1528C2.39781 19.2585 1.87236 17.1454 1.87501 15ZM9.37501 12.1875C9.37501 12.4361 9.47378 12.6746 9.6496 12.8504C9.82541 13.0262 10.0639 13.125 10.3125 13.125H19.6875C19.9362 13.125 20.1746 13.0262 20.3504 12.8504C20.5262 12.6746 20.625 12.4361 20.625 12.1875C20.625 11.9389 20.5262 11.7004 20.3504 11.5246C20.1746 11.3488 19.9362 11.25 19.6875 11.25H10.3125C10.0639 11.25 9.82541 11.3488 9.6496 11.5246C9.47378 11.7004 9.37501 11.9389 9.37501 12.1875ZM10.3125 16.875C10.0639 16.875 9.82541 16.9738 9.6496 17.1496C9.47378 17.3254 9.37501 17.5639 9.37501 17.8125C9.37501 18.0611 9.47378 18.2996 9.6496 18.4754C9.82541 18.6512 10.0639 18.75 10.3125 18.75H15.9375C16.1862 18.75 16.4246 18.6512 16.6004 18.4754C16.7762 18.2996 16.875 18.0611 16.875 17.8125C16.875 17.5639 16.7762 17.3254 16.6004 17.1496C16.4246 16.9738 16.1862 16.875 15.9375 16.875H10.3125Z" fill="#155932"/>
</g>
</svg>
