<svg width="24" height="24" viewBox="0 0 24 24" fill="none" xmlns="http://www.w3.org/2000/svg">
<g id="iconamoon:close-fill">
<path id="Vector" fill-rule="evenodd" clip-rule="evenodd" d="M6.79303 6.79302C6.98056 6.60555 7.23487 6.50023 7.50003 6.50023C7.76519 6.50023 8.0195 6.60555 8.20703 6.79302L12 10.586L15.793 6.79302C15.8853 6.69751 15.9956 6.62133 16.1176 6.56892C16.2396 6.51651 16.3709 6.48892 16.5036 6.48777C16.6364 6.48662 16.7681 6.51192 16.891 6.5622C17.0139 6.61248 17.1255 6.68673 17.2194 6.78062C17.3133 6.87452 17.3876 6.98617 17.4379 7.10907C17.4881 7.23196 17.5134 7.36364 17.5123 7.49642C17.5111 7.6292 17.4835 7.76042 17.4311 7.88242C17.3787 8.00443 17.3025 8.11477 17.207 8.20702L13.414 12L17.207 15.793C17.3892 15.9816 17.49 16.2342 17.4877 16.4964C17.4854 16.7586 17.3803 17.0094 17.1948 17.1948C17.0094 17.3802 16.7586 17.4854 16.4964 17.4877C16.2342 17.49 15.9816 17.3892 15.793 17.207L12 13.414L8.20703 17.207C8.01843 17.3892 7.76583 17.49 7.50363 17.4877C7.24143 17.4854 6.99062 17.3802 6.80521 17.1948C6.6198 17.0094 6.51463 16.7586 6.51236 16.4964C6.51008 16.2342 6.61087 15.9816 6.79303 15.793L10.586 12L6.79303 8.20702C6.60556 8.01949 6.50024 7.76518 6.50024 7.50002C6.50024 7.23486 6.60556 6.98055 6.79303 6.79302Z" fill="black"/>
</g>
</svg>
