<svg width="25" height="24" viewBox="0 0 25 24" fill="none" xmlns="http://www.w3.org/2000/svg">
<g clip-path="url(#clip0_886_660)">
<path d="M23.0019 4.21623C20.3169 1.18223 12.9449 -0.43977 5.61689 5.72923C-0.309109 11.2052 -0.585109 17.2212 2.25389 20.3822C4.03589 22.0322 6.25689 22.4942 8.58689 22.4942C9.48389 22.4942 10.3989 22.4262 11.3089 22.3302C12.4143 22.1174 13.4966 21.7986 14.5409 21.3782L14.5459 21.3762C16.0232 20.7887 17.4103 19.9955 18.6659 19.0202C19.6934 18.2128 20.6221 17.2871 21.4329 16.2622C21.4489 16.2442 21.4669 16.2272 21.4819 16.2072C22.3405 15.1135 23.0722 13.9259 23.6629 12.6672C25.6269 8.52023 23.6099 4.89523 23.0019 4.21623ZM17.7409 17.8402C16.6105 18.7208 15.3624 19.4388 14.0329 19.9732C11.9119 20.2902 8.02589 20.4242 5.42989 17.9162C3.12489 15.6832 3.27689 12.2202 3.47989 10.6962C4.21489 9.42123 5.23789 8.12023 6.60889 6.85423C7.82889 5.82723 9.37589 4.89023 11.0399 4.19523C11.4919 4.15323 11.9689 4.11723 12.5549 4.08623C15.2839 3.74023 18.3169 5.08823 19.6719 6.59423C20.3929 7.39123 20.8259 8.37323 20.9609 9.52023C21.2419 11.7392 20.6339 14.0892 20.2109 15.3832C19.4848 16.2945 18.656 17.119 17.7409 17.8402Z" fill="#767676"/>
<path d="M8.261 8.20094C8.15409 8.10143 8.02046 8.0353 7.8765 8.01066C7.73255 7.98603 7.58453 8.00396 7.45062 8.06226C7.31671 8.12056 7.20273 8.21669 7.12268 8.33885C7.04264 8.46101 7 8.60389 7 8.74994V16.2499C7 16.6639 7.336 16.9999 7.75 16.9999H10.75C10.9489 16.9999 11.1397 16.9209 11.2803 16.7803C11.421 16.6396 11.5 16.4488 11.5 16.2499V12.1439C11.5 11.8669 11.5 11.2179 8.261 8.20094ZM17.549 8.06194C17.415 8.00355 17.2668 7.9856 17.1227 8.01029C16.9787 8.03499 16.8449 8.10125 16.738 8.20094C13.5 11.2179 13.5 11.8669 13.5 12.1439V16.2499C13.5 16.6639 13.836 16.9999 14.25 16.9999H17.25C17.4489 16.9999 17.6397 16.9209 17.7803 16.7803C17.921 16.6396 18 16.4488 18 16.2499V8.74994C17.9998 8.60384 17.957 8.46098 17.8769 8.3388C17.7968 8.21662 17.6829 8.12041 17.549 8.06194Z" fill="#767676"/>
</g>
<defs>
<clipPath id="clip0_886_660">
<rect width="24" height="24" fill="white" transform="translate(0.5)"/>
</clipPath>
</defs>
</svg>
