<svg width="21" height="22" viewBox="0 0 21 22" fill="none" xmlns="http://www.w3.org/2000/svg">
<path d="M6.00011 9.38451C5.97168 9.38451 5.94353 9.39008 5.91728 9.40099C5.89102 9.41189 5.86718 9.42791 5.84711 9.44804C5.82704 9.46818 5.81115 9.49206 5.80034 9.51836C5.78953 9.54465 5.78401 9.57278 5.78411 9.60121V10.8133C5.27897 10.9304 4.79636 11.1292 4.35536 11.402L3.50036 10.547C3.48029 10.5269 3.45645 10.5109 3.43019 10.5C3.40394 10.4891 3.37579 10.4835 3.34736 10.4835C3.31893 10.4835 3.29078 10.4891 3.26453 10.5C3.23827 10.5109 3.21443 10.5269 3.19436 10.547L1.96961 11.771C1.94947 11.7911 1.9335 11.8149 1.92259 11.8411C1.91169 11.8674 1.90608 11.8956 1.90608 11.924C1.90608 11.9524 1.91169 11.9806 1.92259 12.0069C1.9335 12.0331 1.94947 12.0569 1.96961 12.077L2.82686 12.9343C2.55327 13.3744 2.35339 13.8562 2.23511 14.3608H1.02386C0.966575 14.3608 0.911634 14.3835 0.871126 14.424C0.830618 14.4645 0.807861 14.5194 0.807861 14.5767V16.3077C0.807861 16.4277 0.904611 16.5245 1.02386 16.5245H2.23586C2.35328 17.0294 2.5524 17.5117 2.82536 17.9525L1.97036 18.8075C1.95022 18.8275 1.93425 18.8514 1.92334 18.8777C1.91244 18.904 1.90683 18.932 1.90683 18.9605C1.90683 18.9889 1.91244 19.0171 1.92334 19.0433C1.93425 19.0696 1.95022 19.0935 1.97036 19.1135L3.19436 20.3382C3.21443 20.3584 3.23827 20.3744 3.26453 20.3853C3.29078 20.3962 3.31893 20.4018 3.34736 20.4018C3.37579 20.4018 3.40394 20.3962 3.43019 20.3853C3.45645 20.3744 3.48029 20.3584 3.50036 20.3382L4.35761 19.481C4.79768 19.7549 5.27952 19.955 5.78411 20.0735V21.284C5.78411 21.404 5.88011 21.5 6.00011 21.5H7.73111C7.85111 21.5 7.94711 21.404 7.94711 21.284V20.072C8.45225 19.9549 8.93486 19.756 9.37586 19.4832L10.2309 20.3382C10.2509 20.3584 10.2748 20.3744 10.301 20.3853C10.3273 20.3962 10.3554 20.4018 10.3839 20.4018C10.4123 20.4018 10.4404 20.3962 10.4667 20.3853C10.4929 20.3744 10.5168 20.3584 10.5369 20.3382L11.7609 19.1135C11.781 19.0935 11.797 19.0696 11.8079 19.0433C11.8188 19.0171 11.8244 18.9889 11.8244 18.9605C11.8244 18.932 11.8188 18.904 11.8079 18.8777C11.797 18.8514 11.781 18.8275 11.7609 18.8075L10.9044 17.951C11.178 17.5109 11.3778 17.0291 11.4961 16.5245H12.7066C12.8266 16.5245 12.9234 16.427 12.9234 16.3077V14.5775C12.9235 14.549 12.9179 14.5208 12.9071 14.4944C12.8962 14.4681 12.8802 14.4442 12.8601 14.424C12.84 14.4039 12.816 14.3879 12.7897 14.3771C12.7633 14.3662 12.7351 14.3607 12.7066 14.3608H11.4954C11.3779 13.8558 11.1788 13.3734 10.9059 12.9327L11.7609 12.0777C11.7811 12.0576 11.7972 12.0338 11.8082 12.0075C11.8191 11.9812 11.8248 11.9529 11.8248 11.9244C11.8248 11.8958 11.8191 11.8676 11.8082 11.8413C11.7972 11.815 11.7811 11.7911 11.7609 11.771L10.5369 10.547C10.5168 10.5269 10.4929 10.5109 10.4667 10.5C10.4404 10.4891 10.4123 10.4835 10.3839 10.4835C10.3554 10.4835 10.3273 10.4891 10.301 10.5C10.2748 10.5109 10.2509 10.5269 10.2309 10.547L9.37361 11.4035C8.9335 11.1299 8.45166 10.93 7.94711 10.8117V9.60121C7.94721 9.57278 7.9417 9.54465 7.93089 9.51836C7.92007 9.49206 7.90418 9.46818 7.88411 9.44804C7.86405 9.42791 7.8402 9.41189 7.81394 9.40099C7.78769 9.39008 7.75954 9.38451 7.73111 9.38451H6.00011ZM6.86561 12.4137C7.66882 12.4137 8.43913 12.7328 9.00708 13.3008C9.57504 13.8687 9.89411 14.6391 9.89411 15.4423C9.89421 15.84 9.81595 16.2339 9.6638 16.6014C9.51164 16.9689 9.28858 17.3029 9.00735 17.5842C8.72612 17.8655 8.39223 18.0886 8.02474 18.2409C7.65726 18.3931 7.26338 18.4715 6.86561 18.4715C6.46778 18.4716 6.07382 18.3933 5.70625 18.2411C5.33868 18.0889 5.0047 17.8658 4.72339 17.5845C4.44208 17.3032 4.21895 16.9692 4.06675 16.6016C3.91455 16.234 3.83626 15.8401 3.83636 15.4423C3.83636 15.0445 3.91472 14.6506 4.06696 14.2831C4.21921 13.9156 4.44235 13.5817 4.72365 13.3005C5.00496 13.0193 5.3389 12.7962 5.70642 12.6441C6.07395 12.4919 6.46784 12.4136 6.86561 12.4137ZM14.8179 8.24376C14.8004 8.24829 14.7839 8.25627 14.7696 8.2672C14.7552 8.27812 14.7431 8.29176 14.734 8.30739C14.7249 8.32302 14.7191 8.34028 14.7167 8.3582C14.7144 8.37612 14.7156 8.39432 14.7204 8.41176L14.9191 9.15279C14.6295 9.30741 14.367 9.50828 14.1421 9.74751L13.4791 9.36501C13.4636 9.35566 13.4464 9.34954 13.4285 9.34697C13.4106 9.3444 13.3924 9.34546 13.3749 9.35008C13.3574 9.3547 13.341 9.36272 13.3267 9.37379C13.3124 9.38487 13.3005 9.39876 13.2916 9.41454L12.7434 10.3648C12.7342 10.3803 12.7283 10.3976 12.7259 10.4155C12.7235 10.4334 12.7247 10.4515 12.7293 10.4689C12.734 10.4864 12.7421 10.5027 12.7531 10.517C12.7642 10.5313 12.7779 10.5433 12.7936 10.5523L13.4581 10.9355C13.3631 11.2497 13.32 11.5772 13.3306 11.9052L12.5896 12.104C12.5722 12.1085 12.5559 12.1165 12.5415 12.1273C12.5272 12.1382 12.5151 12.1518 12.5061 12.1673C12.497 12.1829 12.4911 12.2 12.4887 12.2179C12.4863 12.2357 12.4875 12.2539 12.4921 12.2713L12.7764 13.3302C12.7809 13.3477 12.7888 13.364 12.7997 13.3783C12.8106 13.3926 12.8242 13.4047 12.8397 13.4137C12.8553 13.4228 12.8724 13.4287 12.8903 13.4311C12.9081 13.4335 12.9262 13.4324 12.9436 13.4277L13.6854 13.2283C13.8399 13.5182 14.0408 13.7809 14.2801 14.006L13.8969 14.669C13.8877 14.6846 13.8818 14.7018 13.8794 14.7197C13.877 14.7376 13.8782 14.7558 13.8828 14.7732C13.8875 14.7906 13.8956 14.807 13.9066 14.8213C13.9177 14.8356 13.9314 14.8476 13.9471 14.8565L14.8966 15.404C14.9626 15.443 15.0459 15.419 15.0841 15.3545L15.4674 14.69C15.7815 14.785 16.1091 14.8281 16.4371 14.8175L16.6359 15.5585C16.6404 15.5759 16.6483 15.5924 16.6593 15.6068C16.6702 15.6212 16.6839 15.6332 16.6995 15.6423C16.7151 15.6514 16.7324 15.6573 16.7503 15.6596C16.7682 15.662 16.7864 15.6607 16.8039 15.656L17.8621 15.3718C17.8796 15.3673 17.896 15.3593 17.9104 15.3483C17.9248 15.3374 17.9369 15.3238 17.946 15.3082C17.955 15.2925 17.9609 15.2753 17.9633 15.2573C17.9656 15.2394 17.9644 15.2212 17.9596 15.2038L17.7609 14.4628C18.0505 14.3081 18.313 14.1073 18.5379 13.868L19.2016 14.2505C19.2172 14.2597 19.2343 14.2657 19.2522 14.2681C19.2701 14.2706 19.2882 14.2694 19.3057 14.2648C19.3231 14.2602 19.3395 14.2522 19.3538 14.2413C19.3681 14.2303 19.3801 14.2166 19.3891 14.201L19.9366 13.2508C19.9457 13.2352 19.9517 13.218 19.9541 13.2001C19.9565 13.1822 19.9553 13.1639 19.9506 13.1465C19.946 13.1291 19.9379 13.1127 19.9268 13.0984C19.9158 13.0841 19.902 13.0722 19.8864 13.0633L19.2219 12.6808C19.3169 12.3664 19.36 12.0385 19.3494 11.7102L20.0911 11.5123C20.1085 11.5077 20.1249 11.4996 20.1392 11.4887C20.1535 11.4777 20.1655 11.464 20.1745 11.4484C20.1835 11.4328 20.1893 11.4155 20.1916 11.3977C20.1939 11.3798 20.1926 11.3617 20.1879 11.3443L19.9044 10.2853C19.8998 10.2678 19.8919 10.2513 19.881 10.237C19.87 10.2226 19.8564 10.2105 19.8407 10.2014C19.8251 10.1924 19.8078 10.1865 19.7899 10.1841C19.772 10.1818 19.7538 10.183 19.7364 10.1878L18.9946 10.3873C18.8402 10.0977 18.6396 9.83522 18.4006 9.61028L18.7831 8.94652C18.7923 8.93098 18.7982 8.91375 18.8007 8.89589C18.8032 8.87803 18.802 8.85986 18.7974 8.84242C18.7928 8.82499 18.7848 8.80868 18.7739 8.79436C18.7629 8.78004 18.7492 8.76802 18.7336 8.75902L17.7834 8.21153C17.7679 8.20218 17.7507 8.19597 17.7328 8.19341C17.7149 8.19084 17.6966 8.1919 17.6791 8.19652C17.6616 8.20114 17.6453 8.20925 17.631 8.22032C17.6166 8.23139 17.6047 8.2452 17.5959 8.26097L17.2126 8.92628C16.8985 8.83103 16.5709 8.7877 16.2429 8.79802L16.0441 8.05699C16.0396 8.03958 16.0316 8.02326 16.0208 8.00893C16.0099 7.99459 15.9963 7.98256 15.9808 7.9735C15.9652 7.96443 15.948 7.9585 15.9302 7.9561C15.9124 7.9537 15.8942 7.95485 15.8769 7.95949L14.8179 8.24376ZM15.8439 9.95525C16.3352 9.82374 16.8586 9.89268 17.2991 10.147C17.7395 10.4012 18.061 10.82 18.1929 11.3112C18.3246 11.8026 18.2557 12.3263 18.0015 12.7669C17.7472 13.2076 17.3283 13.5292 16.8369 13.661C16.5935 13.7262 16.3397 13.7429 16.0899 13.71C15.84 13.6771 15.5992 13.5953 15.381 13.4693C15.1628 13.3433 14.9715 13.1756 14.8182 12.9757C14.6648 12.7758 14.5523 12.5476 14.4871 12.3042C14.3556 11.8128 14.4247 11.2893 14.6791 10.8488C14.9335 10.4083 15.3525 10.0869 15.8439 9.95525ZM10.2691 0.5C10.2271 0.500198 10.1868 0.517032 10.1572 0.546829C10.1275 0.576626 10.1109 0.616942 10.1109 0.658981V1.54773C9.74041 1.63369 9.3865 1.77961 9.06311 1.97972L8.43611 1.35199C8.42146 1.33714 8.404 1.32534 8.38475 1.31729C8.36551 1.30924 8.34485 1.30511 8.32399 1.30511C8.30312 1.30511 8.28247 1.30924 8.26322 1.31729C8.24397 1.32534 8.22651 1.33714 8.21186 1.35199L7.31411 2.25053C7.29926 2.26519 7.28747 2.28265 7.27942 2.3019C7.27137 2.32114 7.26722 2.34173 7.26722 2.36259C7.26722 2.38346 7.27137 2.40414 7.27942 2.42339C7.28747 2.44263 7.29926 2.46009 7.31411 2.47475L7.94261 3.10326C7.74193 3.4258 7.59525 3.77898 7.50836 4.14879H6.62036C6.59943 4.14859 6.57866 4.1525 6.55928 4.16042C6.5399 4.16834 6.52229 4.18003 6.50748 4.19484C6.49268 4.20964 6.48098 4.22728 6.47306 4.24666C6.46514 4.26604 6.46116 4.28679 6.46136 4.30772V5.57674C6.46136 5.66524 6.53261 5.73576 6.62036 5.73576H7.50911C7.59515 6.10596 7.74107 6.45961 7.94111 6.78276L7.31411 7.41054C7.29935 7.42524 7.28764 7.44266 7.27964 7.4619C7.27165 7.48114 7.26754 7.50176 7.26754 7.5226C7.26754 7.54343 7.27165 7.56406 7.27964 7.5833C7.28764 7.60254 7.29935 7.62005 7.31411 7.63475L8.21186 8.53252C8.22653 8.54748 8.24403 8.55937 8.26335 8.56749C8.28266 8.57561 8.30341 8.57976 8.32436 8.57976C8.34532 8.57976 8.36606 8.57561 8.38538 8.56749C8.40469 8.55937 8.4222 8.54748 8.43686 8.53252L9.06461 7.90401C9.38739 8.10476 9.74079 8.25143 10.1109 8.33824V9.22621C10.1109 9.31396 10.1814 9.38451 10.2691 9.38451H11.5389C11.5808 9.38431 11.6209 9.36754 11.6505 9.33791C11.6802 9.30827 11.6969 9.26812 11.6971 9.22621V8.33751C12.0676 8.25155 12.4215 8.10559 12.7449 7.90547L13.3719 8.53252C13.3865 8.54748 13.404 8.55937 13.4233 8.56749C13.4427 8.57561 13.4634 8.57976 13.4844 8.57976C13.5053 8.57976 13.5261 8.57561 13.5454 8.56749C13.5647 8.55937 13.5822 8.54748 13.5969 8.53252L14.4939 7.63475C14.5087 7.62003 14.5205 7.60252 14.5286 7.58321C14.5367 7.5639 14.5408 7.54316 14.5408 7.52223C14.5408 7.50131 14.5367 7.48057 14.5286 7.46126C14.5205 7.44195 14.5087 7.42443 14.4939 7.40971L13.8661 6.78203C14.0666 6.4592 14.213 6.10579 14.2996 5.73576H15.1876C15.2298 5.73576 15.2702 5.71898 15.3 5.68916C15.3299 5.65935 15.3466 5.61891 15.3466 5.57674V4.30772C15.3467 4.28682 15.3427 4.26609 15.3347 4.24675C15.3268 4.22741 15.315 4.2099 15.3003 4.19511C15.2855 4.18033 15.2679 4.16865 15.2486 4.16069C15.2292 4.15273 15.2085 4.14869 15.1876 4.14879H14.2989C14.2128 3.7786 14.0669 3.42495 13.8669 3.10179L14.4939 2.47475C14.5088 2.46008 14.5207 2.44261 14.5288 2.42329C14.537 2.40398 14.5411 2.38318 14.5411 2.36223C14.5411 2.34127 14.537 2.32057 14.5288 2.30125C14.5207 2.28194 14.5088 2.26437 14.4939 2.24971L13.5961 1.35199C13.5815 1.33714 13.564 1.32534 13.5448 1.31729C13.5255 1.30924 13.5049 1.30511 13.484 1.30511C13.4631 1.30511 13.4425 1.30924 13.4232 1.31729C13.404 1.32534 13.3865 1.33714 13.3719 1.35199L12.7434 1.98055C12.4205 1.78005 12.0671 1.63358 11.6971 1.547V0.658981C11.6972 0.638137 11.6932 0.617477 11.6853 0.59819C11.6774 0.578904 11.6657 0.561375 11.651 0.5466C11.6363 0.531826 11.6188 0.52013 11.5996 0.512131C11.5803 0.504131 11.5597 0.5 11.5389 0.5H10.2691ZM10.9044 2.72148C11.4933 2.72168 12.058 2.95572 12.4744 3.37215C12.8909 3.78857 13.1249 4.35336 13.1251 4.94228C13.1251 5.53132 12.8912 6.09627 12.4747 6.51286C12.0583 6.92945 11.4934 7.16351 10.9044 7.16371C10.3152 7.16371 9.75014 6.92966 9.33352 6.51305C8.91691 6.09643 8.68286 5.53145 8.68286 4.94228C8.68306 4.35323 8.9172 3.78832 9.33379 3.37187C9.75038 2.95542 10.3153 2.72148 10.9044 2.72148Z" fill="#767676"/>
</svg>
