<svg width="24" height="18" viewBox="0 0 24 18" fill="none" xmlns="http://www.w3.org/2000/svg">
<path d="M24 8.878C24 3.906 17.404 0.5 14.188 0.5C12.697 0.5 12.48 1.216 12.48 1.512C12.48 1.943 12.863 2.344 13.093 2.42C17.272 3.797 17.874 4.992 17.974 5.058C18.42 5.639 18.714 6.061 18.714 6.509C18.714 6.586 18.705 6.664 18.687 6.744C18.557 6.93 19.029 7.453 9.987 7.453C4.761 7.453 5.137 6.922 5.137 6.709C5.137 6.513 5.215 6.253 5.359 5.961C7.46 2.621 11.243 3.075 11.243 1.677C11.243 1.587 11.227 1.488 11.194 1.381C11.019 0.86 10.397 0.614 9.529 0.614C6.382 0.616 0 3.858 0 9.027C0 14.085 5.816 17.5 9.633 17.5C10.685 17.5 11.384 17.184 11.384 16.546C11.384 15.147 8.647 15.603 6.077 13.13C5.46 12.396 5.174 11.893 5.174 11.547C5.174 10.841 5.903 10.621 14.942 10.621C17.866 10.621 18.755 10.815 18.755 11.408C18.755 11.607 18.655 11.852 18.498 12.15C16.498 15.282 12.593 15.146 12.593 16.355C12.593 17.419 14.282 17.368 14.335 17.368C18.516 17.368 24 13.411 24 8.878Z" fill="#767676"/>
</svg>
