<svg width="25" height="20" viewBox="0 0 25 20" fill="none" xmlns="http://www.w3.org/2000/svg">
<path d="M9.79865 6.18848L8.37074 12.7133H6.46686C4.21247 10.8655 6.44296 6.18848 6.44296 6.18848H3.78031C2.24884 9.0567 2.66108 10.9148 2.66108 10.9148C2.92197 13.243 4.91945 14.2306 4.91945 14.2306H11.2126L12.8935 6.19053H9.79865V6.18848Z" fill="#767676"/>
<path d="M20.4453 6.18848H13.6025L11.9695 14.2285H20.2502C20.2502 14.2285 22.1541 13.3375 22.397 11.5574V8.94172C22.395 8.94172 22.2556 6.81468 20.4453 6.18848ZM19.4456 11.0031C19.3062 12.3171 18.6809 12.7913 18.6809 12.7913H15.6458L16.2253 7.53738H18.7326C19.2305 7.69342 19.4476 9.20042 19.4476 9.20042V11.0031H19.4456Z" fill="#767676"/>
<path d="M20.8834 3.11678C18.633 1.36341 15.6557 0.398438 12.5011 0.398438C9.34656 0.398438 6.36727 1.36341 4.11686 3.11678C1.78281 4.93585 0.498291 7.37908 0.498291 10.0009C0.498291 12.6228 1.78281 15.066 4.11686 16.883C6.36727 18.6364 9.34457 19.6014 12.4991 19.6014C15.6537 19.6014 18.631 18.6364 20.8814 16.883C23.2154 15.0639 24.5 12.6207 24.5 10.0009C24.5 7.38113 23.2174 4.93585 20.8834 3.11678ZM12.5011 18.5748C6.42104 18.5748 1.49405 14.7354 1.49405 10.0009C1.49405 5.26641 6.42104 1.425 12.5011 1.425C18.5792 1.425 23.5082 5.26436 23.5082 10.0009C23.5082 14.7375 18.5792 18.5748 12.5011 18.5748Z" fill="#767676"/>
</svg>
