<svg width="24" height="24" viewBox="0 0 24 24" fill="none" xmlns="http://www.w3.org/2000/svg">
<circle cx="12" cy="12" r="12" fill="#676767"/>
<path d="M9.48 6H14.52C16.44 6 18 7.56 18 9.48V14.52C18 15.443 17.6334 16.3281 16.9807 16.9807C16.3281 17.6334 15.443 18 14.52 18H9.48C7.56 18 6 16.44 6 14.52V9.48C6 8.55705 6.36664 7.6719 7.01927 7.01927C7.6719 6.36664 8.55705 6 9.48 6ZM9.36 7.2C8.78713 7.2 8.23773 7.42757 7.83265 7.83265C7.42757 8.23773 7.2 8.78713 7.2 9.36V14.64C7.2 15.834 8.166 16.8 9.36 16.8H14.64C15.2129 16.8 15.7623 16.5724 16.1674 16.1674C16.5724 15.7623 16.8 15.2129 16.8 14.64V9.36C16.8 8.166 15.834 7.2 14.64 7.2H9.36ZM15.15 8.1C15.3489 8.1 15.5397 8.17902 15.6803 8.31967C15.821 8.46032 15.9 8.65109 15.9 8.85C15.9 9.04891 15.821 9.23968 15.6803 9.38033C15.5397 9.52098 15.3489 9.6 15.15 9.6C14.9511 9.6 14.7603 9.52098 14.6197 9.38033C14.479 9.23968 14.4 9.04891 14.4 8.85C14.4 8.65109 14.479 8.46032 14.6197 8.31967C14.7603 8.17902 14.9511 8.1 15.15 8.1ZM12 9C12.7956 9 13.5587 9.31607 14.1213 9.87868C14.6839 10.4413 15 11.2044 15 12C15 12.7956 14.6839 13.5587 14.1213 14.1213C13.5587 14.6839 12.7956 15 12 15C11.2044 15 10.4413 14.6839 9.87868 14.1213C9.31607 13.5587 9 12.7956 9 12C9 11.2044 9.31607 10.4413 9.87868 9.87868C10.4413 9.31607 11.2044 9 12 9ZM12 10.2C11.5226 10.2 11.0648 10.3896 10.7272 10.7272C10.3896 11.0648 10.2 11.5226 10.2 12C10.2 12.4774 10.3896 12.9352 10.7272 13.2728C11.0648 13.6104 11.5226 13.8 12 13.8C12.4774 13.8 12.9352 13.6104 13.2728 13.2728C13.6104 12.9352 13.8 12.4774 13.8 12C13.8 11.5226 13.6104 11.0648 13.2728 10.7272C12.9352 10.3896 12.4774 10.2 12 10.2Z" fill="white"/>
</svg>
