<svg width="24" height="24" viewBox="0 0 24 24" fill="none" xmlns="http://www.w3.org/2000/svg">
<circle cx="12" cy="12" r="12" fill="#676767"/>
<path d="M9.3085 7.11161C9.30835 7.40627 9.18659 7.68881 8.97002 7.89707C8.75345 8.10533 8.4598 8.22225 8.15367 8.2221C7.84755 8.22195 7.55402 8.10475 7.33766 7.89629C7.12131 7.68782 6.99985 7.40516 7 7.11049C7.00015 6.81583 7.12191 6.53328 7.33848 6.32503C7.55505 6.11677 7.8487 5.99985 8.15483 6C8.46095 6.00015 8.75448 6.11735 8.97084 6.32581C9.18719 6.53428 9.30865 6.81694 9.3085 7.11161ZM9.34313 9.04483H7.03463V16H9.34313V9.04483ZM12.9906 9.04483H10.6936V16H12.9675V12.3502C12.9675 10.317 15.7204 10.1281 15.7204 12.3502V16H18V11.5947C18 8.1671 13.9255 8.29487 12.9675 9.97811L12.9906 9.04483Z" fill="white"/>
</svg>
