<svg width="17" height="21" viewBox="0 0 17 21" fill="none" xmlns="http://www.w3.org/2000/svg">
<path id="Vector" d="M9.00853 19.5647L9.00848 19.5647C8.82689 19.7207 8.59536 19.8064 8.35598 19.8062C8.11689 19.806 7.88581 19.7201 7.7046 19.5642C7.70437 19.564 7.70413 19.5638 7.7039 19.5636L7.38271 19.2849C7.38243 19.2846 7.38215 19.2844 7.38187 19.2841C2.72522 15.2087 0.5 11.5824 0.5 8.35714C0.5 6.2733 1.3278 4.2748 2.8013 2.8013C4.2748 1.3278 6.2733 0.5 8.35714 0.5C10.441 0.5 12.4395 1.3278 13.913 2.8013C15.3865 4.2748 16.2143 6.2733 16.2143 8.35714C16.2143 11.6571 13.8845 15.3772 9.00853 19.5647ZM8.35714 4.64286C7.37205 4.64286 6.42731 5.03418 5.73075 5.73075C5.03418 6.42731 4.64286 7.37205 4.64286 8.35714C4.64286 9.34223 5.03418 10.287 5.73075 10.9835C6.42731 11.6801 7.37205 12.0714 8.35714 12.0714C9.34223 12.0714 10.287 11.6801 10.9835 10.9835C11.6801 10.287 12.0714 9.34223 12.0714 8.35714C12.0714 7.37205 11.6801 6.42731 10.9835 5.73075C10.287 5.03418 9.34223 4.64286 8.35714 4.64286Z" fill="#155932" stroke="#00A6CC"/>
</svg>
