<svg width="21" height="16" viewBox="0 0 21 16" fill="none" xmlns="http://www.w3.org/2000/svg">
<path id="Vector" d="M20.412 13.5639V2.76387C20.412 1.76787 19.608 0.963867 18.612 0.963867H1.8C0.804 0.963867 0 1.76787 0 2.76387V13.5639C0 14.5599 0.804 15.3639 1.8 15.3639H18.612C19.608 15.3639 20.412 14.5599 20.412 13.5639ZM18.84 2.63187C19.236 3.02787 19.02 3.43587 18.804 3.63987L13.932 8.10387L18.612 12.9759C18.756 13.1439 18.852 13.4079 18.684 13.5879C18.528 13.7799 18.168 13.7679 18.012 13.6479L12.768 9.17187L10.2 11.5119L7.644 9.17187L2.4 13.6479C2.244 13.7679 1.884 13.7799 1.728 13.5879C1.56 13.4079 1.656 13.1439 1.8 12.9759L6.48 8.10387L1.608 3.63987C1.392 3.43587 1.176 3.02787 1.572 2.63187C1.968 2.23587 2.376 2.42787 2.712 2.71587L10.2 8.76387L17.7 2.71587C18.036 2.42787 18.444 2.23587 18.84 2.63187Z" fill="#00A6CC"/>
</svg>
