<svg width="24" height="25" viewBox="0 0 24 25" fill="none" xmlns="http://www.w3.org/2000/svg">
<path fill-rule="evenodd" clip-rule="evenodd" d="M17.8988 17.0413C19.4575 15.0317 20.1921 12.5038 19.9532 9.97184C19.7142 7.43987 18.5196 5.09404 16.6125 3.41158C14.7053 1.72911 12.2288 0.836408 9.68681 0.915068C7.14481 0.993728 4.72826 2.03785 2.92877 3.83501C1.12771 5.63342 0.0801814 8.05091 -0.000358409 10.5948C-0.0808982 13.1388 0.811617 15.6177 2.49531 17.5264C4.17899 19.4351 6.52714 20.6301 9.06124 20.8676C11.5953 21.1052 14.1247 20.3675 16.1338 18.805L16.1875 18.8613L21.49 24.165C21.6062 24.2811 21.744 24.3733 21.8958 24.4361C22.0475 24.499 22.2102 24.5313 22.3744 24.5313C22.5386 24.5313 22.7013 24.499 22.853 24.4361C23.0048 24.3733 23.1426 24.2811 23.2588 24.165C23.3749 24.0489 23.467 23.911 23.5299 23.7593C23.5927 23.6075 23.6251 23.4449 23.6251 23.2806C23.6251 23.1164 23.5927 22.9538 23.5299 22.802C23.467 22.6503 23.3749 22.5124 23.2588 22.3963L17.955 17.0938C17.9368 17.0757 17.918 17.0582 17.8988 17.0413ZM15.3038 5.60376C16.0095 6.29811 16.5708 7.12532 16.9553 8.03768C17.3397 8.95004 17.5397 9.92949 17.5438 10.9195C17.5478 11.9096 17.3558 12.8906 16.9788 13.8061C16.6017 14.7215 16.0472 15.5533 15.3471 16.2534C14.6471 16.9534 13.8153 17.508 12.8998 17.885C11.9844 18.262 11.0033 18.454 10.0133 18.45C9.02325 18.446 8.0438 18.246 7.13144 17.8615C6.21908 17.4771 5.39187 16.9158 4.69752 16.21C3.30992 14.7996 2.53584 12.8981 2.5439 10.9195C2.55195 8.94101 3.34149 7.04581 4.74053 5.64677C6.13957 4.24773 8.03477 3.45819 10.0133 3.45013C11.9918 3.44208 13.8934 4.21616 15.3038 5.60376Z" fill="#00a6cc"/>
</svg>
