<svg width="24" height="24" viewBox="0 0 24 24" fill="none" xmlns="http://www.w3.org/2000/svg">
<g clip-path="url(#clip0_919_48)">
<path d="M22.5019 4.21623C19.8169 1.18223 12.4449 -0.43977 5.11689 5.72923C-0.809109 11.2052 -1.08511 17.2212 1.75389 20.3822C3.53589 22.0322 5.75689 22.4942 8.08689 22.4942C8.98389 22.4942 9.89889 22.4262 10.8089 22.3302C11.9143 22.1174 12.9966 21.7986 14.0409 21.3782L14.0459 21.3762C15.5232 20.7887 16.9103 19.9955 18.1659 19.0202C19.1934 18.2128 20.1221 17.2871 20.9329 16.2622C20.9489 16.2442 20.9669 16.2272 20.9819 16.2072C21.8405 15.1135 22.5722 13.9259 23.1629 12.6672C25.1269 8.52023 23.1099 4.89523 22.5019 4.21623ZM17.2409 17.8402C16.1105 18.7208 14.8624 19.4388 13.5329 19.9732C11.4119 20.2902 7.52589 20.4242 4.92989 17.9162C2.62489 15.6832 2.77689 12.2202 2.97989 10.6962C3.71489 9.42123 4.73789 8.12023 6.10889 6.85423C7.32889 5.82723 8.87589 4.89023 10.5399 4.19523C10.9919 4.15323 11.4689 4.11723 12.0549 4.08623C14.7839 3.74023 17.8169 5.08823 19.1719 6.59423C19.8929 7.39123 20.3259 8.37323 20.4609 9.52023C20.7419 11.7392 20.1339 14.0892 19.7109 15.3832C18.9848 16.2945 18.156 17.119 17.2409 17.8402Z" fill="white"/>
<path d="M7.761 8.20094C7.65409 8.10143 7.52046 8.0353 7.3765 8.01066C7.23255 7.98603 7.08453 8.00396 6.95062 8.06226C6.81671 8.12056 6.70273 8.21669 6.62268 8.33885C6.54264 8.46101 6.5 8.60389 6.5 8.74994V16.2499C6.5 16.6639 6.836 16.9999 7.25 16.9999H10.25C10.4489 16.9999 10.6397 16.9209 10.7803 16.7803C10.921 16.6396 11 16.4488 11 16.2499V12.1439C11 11.8669 11 11.2179 7.761 8.20094ZM17.049 8.06194C16.915 8.00355 16.7668 7.9856 16.6227 8.01029C16.4787 8.03499 16.3449 8.10125 16.238 8.20094C13 11.2179 13 11.8669 13 12.1439V16.2499C13 16.6639 13.336 16.9999 13.75 16.9999H16.75C16.9489 16.9999 17.1397 16.9209 17.2803 16.7803C17.421 16.6396 17.5 16.4488 17.5 16.2499V8.74994C17.4998 8.60384 17.457 8.46098 17.3769 8.3388C17.2968 8.21662 17.1829 8.12041 17.049 8.06194Z" fill="white"/>
</g>
<defs>
<clipPath id="clip0_919_48">
<rect width="24" height="24" fill="white"/>
</clipPath>
</defs>
</svg>
