<svg width="24" height="24" viewBox="0 0 24 24" fill="none" xmlns="http://www.w3.org/2000/svg">
<g clip-path="url(#clip0_919_53)">
<path d="M9.29865 8.18848L7.87074 14.7133H5.96686C3.71247 12.8655 5.94296 8.18848 5.94296 8.18848H3.28031C1.74884 11.0567 2.16108 12.9148 2.16108 12.9148C2.42197 15.243 4.41945 16.2306 4.41945 16.2306H10.7126L12.3935 8.19053H9.29865V8.18848Z" fill="white"/>
<path d="M19.9453 8.18848H13.1025L11.4695 16.2285H19.7502C19.7502 16.2285 21.6541 15.3375 21.897 13.5574V10.9417C21.895 10.9417 21.7556 8.81468 19.9453 8.18848ZM18.9456 13.0031C18.8062 14.3171 18.1809 14.7913 18.1809 14.7913H15.1458L15.7253 9.53738H18.2326C18.7305 9.69342 18.9476 11.2004 18.9476 11.2004V13.0031H18.9456Z" fill="white"/>
<path d="M20.3834 5.11678C18.133 3.36341 15.1557 2.39844 12.0011 2.39844C8.84656 2.39844 5.86727 3.36341 3.61686 5.11678C1.28281 6.93585 -0.00170898 9.37908 -0.00170898 12.0009C-0.00170898 14.6228 1.28281 17.066 3.61686 18.883C5.86727 20.6364 8.84457 21.6014 11.9991 21.6014C15.1537 21.6014 18.131 20.6364 20.3814 18.883C22.7154 17.0639 24 14.6207 24 12.0009C24 9.38113 22.7174 6.93585 20.3834 5.11678ZM12.0011 20.5748C5.92104 20.5748 0.994045 16.7354 0.994045 12.0009C0.994045 7.26641 5.92104 3.425 12.0011 3.425C18.0792 3.425 23.0082 7.26436 23.0082 12.0009C23.0082 16.7375 18.0792 20.5748 12.0011 20.5748Z" fill="white"/>
</g>
<defs>
<clipPath id="clip0_919_53">
<rect width="24" height="24" fill="white"/>
</clipPath>
</defs>
</svg>
