<svg width="24" height="24" viewBox="0 0 24 24" fill="none" xmlns="http://www.w3.org/2000/svg">
<path d="M24 11.878C24 6.906 17.404 3.5 14.188 3.5C12.697 3.5 12.48 4.216 12.48 4.512C12.48 4.943 12.863 5.344 13.093 5.42C17.272 6.797 17.874 7.992 17.974 8.058C18.42 8.639 18.714 9.061 18.714 9.509C18.714 9.586 18.705 9.664 18.687 9.744C18.557 9.93 19.029 10.453 9.987 10.453C4.761 10.453 5.137 9.922 5.137 9.709C5.137 9.513 5.215 9.253 5.359 8.961C7.46 5.621 11.243 6.075 11.243 4.677C11.243 4.587 11.227 4.488 11.194 4.381C11.019 3.86 10.397 3.614 9.529 3.614C6.382 3.616 0 6.858 0 12.027C0 17.085 5.816 20.5 9.633 20.5C10.685 20.5 11.384 20.184 11.384 19.546C11.384 18.147 8.647 18.603 6.077 16.13C5.46 15.396 5.174 14.893 5.174 14.547C5.174 13.841 5.903 13.621 14.942 13.621C17.866 13.621 18.755 13.815 18.755 14.408C18.755 14.607 18.655 14.852 18.498 15.15C16.498 18.282 12.593 18.146 12.593 19.355C12.593 20.419 14.282 20.368 14.335 20.368C18.516 20.368 24 16.411 24 11.878Z" fill="white"/>
</svg>
