<svg width="24" height="24" viewBox="0 0 24 24" fill="none" xmlns="http://www.w3.org/2000/svg">
<path d="M7.50011 10.3845C7.47168 10.3845 7.44353 10.3901 7.41728 10.401C7.39102 10.4119 7.36718 10.4279 7.34711 10.448C7.32704 10.4682 7.31115 10.4921 7.30034 10.5184C7.28953 10.5446 7.28401 10.5728 7.28411 10.6012V11.8133C6.77897 11.9304 6.29636 12.1292 5.85536 12.402L5.00036 11.547C4.98029 11.5269 4.95645 11.5109 4.93019 11.5C4.90394 11.4891 4.87579 11.4835 4.84736 11.4835C4.81893 11.4835 4.79078 11.4891 4.76453 11.5C4.73827 11.5109 4.71443 11.5269 4.69436 11.547L3.46961 12.771C3.44947 12.7911 3.4335 12.8149 3.42259 12.8411C3.41169 12.8674 3.40608 12.8956 3.40608 12.924C3.40608 12.9524 3.41169 12.9806 3.42259 13.0069C3.4335 13.0331 3.44947 13.0569 3.46961 13.077L4.32686 13.9343C4.05327 14.3744 3.85339 14.8562 3.73511 15.3608H2.52386C2.46657 15.3608 2.41163 15.3835 2.37113 15.424C2.33062 15.4645 2.30786 15.5194 2.30786 15.5767V17.3077C2.30786 17.4277 2.40461 17.5245 2.52386 17.5245H3.73586C3.85328 18.0294 4.0524 18.5117 4.32536 18.9525L3.47036 19.8075C3.45022 19.8275 3.43425 19.8514 3.42334 19.8777C3.41244 19.904 3.40683 19.932 3.40683 19.9605C3.40683 19.9889 3.41244 20.0171 3.42334 20.0433C3.43425 20.0696 3.45022 20.0935 3.47036 20.1135L4.69436 21.3382C4.71443 21.3584 4.73827 21.3744 4.76453 21.3853C4.79078 21.3962 4.81893 21.4018 4.84736 21.4018C4.87579 21.4018 4.90394 21.3962 4.93019 21.3853C4.95645 21.3744 4.98029 21.3584 5.00036 21.3382L5.85761 20.481C6.29768 20.7549 6.77952 20.955 7.28411 21.0735V22.284C7.28411 22.404 7.38011 22.5 7.50011 22.5H9.23111C9.35111 22.5 9.44711 22.404 9.44711 22.284V21.072C9.95225 20.9549 10.4349 20.756 10.8759 20.4832L11.7309 21.3382C11.7509 21.3584 11.7748 21.3744 11.801 21.3853C11.8273 21.3962 11.8554 21.4018 11.8839 21.4018C11.9123 21.4018 11.9404 21.3962 11.9667 21.3853C11.9929 21.3744 12.0168 21.3584 12.0369 21.3382L13.2609 20.1135C13.281 20.0935 13.297 20.0696 13.3079 20.0433C13.3188 20.0171 13.3244 19.9889 13.3244 19.9605C13.3244 19.932 13.3188 19.904 13.3079 19.8777C13.297 19.8514 13.281 19.8275 13.2609 19.8075L12.4044 18.951C12.678 18.5109 12.8778 18.0291 12.9961 17.5245H14.2066C14.3266 17.5245 14.4234 17.427 14.4234 17.3077V15.5775C14.4235 15.549 14.4179 15.5208 14.4071 15.4944C14.3962 15.4681 14.3802 15.4442 14.3601 15.424C14.34 15.4039 14.316 15.3879 14.2897 15.3771C14.2633 15.3662 14.2351 15.3607 14.2066 15.3608H12.9954C12.8779 14.8558 12.6788 14.3734 12.4059 13.9327L13.2609 13.0777C13.2811 13.0576 13.2972 13.0338 13.3082 13.0075C13.3191 12.9812 13.3248 12.9529 13.3248 12.9244C13.3248 12.8958 13.3191 12.8676 13.3082 12.8413C13.2972 12.815 13.2811 12.7911 13.2609 12.771L12.0369 11.547C12.0168 11.5269 11.9929 11.5109 11.9667 11.5C11.9404 11.4891 11.9123 11.4835 11.8839 11.4835C11.8554 11.4835 11.8273 11.4891 11.801 11.5C11.7748 11.5109 11.7509 11.5269 11.7309 11.547L10.8736 12.4035C10.4335 12.1299 9.95166 11.93 9.44711 11.8117V10.6012C9.44721 10.5728 9.4417 10.5446 9.43089 10.5184C9.42007 10.4921 9.40418 10.4682 9.38411 10.448C9.36405 10.4279 9.3402 10.4119 9.31394 10.401C9.28769 10.3901 9.25954 10.3845 9.23111 10.3845H7.50011ZM8.36561 13.4137C9.16882 13.4137 9.93913 13.7328 10.5071 14.3008C11.075 14.8687 11.3941 15.6391 11.3941 16.4423C11.3942 16.84 11.3159 17.2339 11.1638 17.6014C11.0116 17.9689 10.7886 18.3029 10.5073 18.5842C10.2261 18.8655 9.89223 19.0886 9.52474 19.2409C9.15726 19.3931 8.76338 19.4715 8.36561 19.4715C7.96778 19.4716 7.57382 19.3933 7.20625 19.2411C6.83868 19.0889 6.5047 18.8658 6.22339 18.5845C5.94208 18.3032 5.71895 17.9692 5.56675 17.6016C5.41455 17.234 5.33626 16.8401 5.33636 16.4423C5.33636 16.0445 5.41472 15.6506 5.56696 15.2831C5.71921 14.9156 5.94235 14.5817 6.22365 14.3005C6.50496 14.0193 6.8389 13.7962 7.20642 13.6441C7.57395 13.4919 7.96784 13.4136 8.36561 13.4137ZM16.3179 9.24376C16.3004 9.24829 16.2839 9.25627 16.2696 9.2672C16.2552 9.27812 16.2431 9.29176 16.234 9.30739C16.2249 9.32302 16.2191 9.34028 16.2167 9.3582C16.2144 9.37612 16.2156 9.39432 16.2204 9.41176L16.4191 10.1528C16.1295 10.3074 15.867 10.5083 15.6421 10.7475L14.9791 10.365C14.9636 10.3557 14.9464 10.3495 14.9285 10.347C14.9106 10.3444 14.8924 10.3455 14.8749 10.3501C14.8574 10.3547 14.841 10.3627 14.8267 10.3738C14.8124 10.3849 14.8005 10.3988 14.7916 10.4145L14.2434 11.3648C14.2342 11.3803 14.2283 11.3976 14.2259 11.4155C14.2235 11.4334 14.2247 11.4515 14.2293 11.4689C14.234 11.4864 14.2421 11.5027 14.2531 11.517C14.2642 11.5313 14.2779 11.5433 14.2936 11.5523L14.9581 11.9355C14.8631 12.2497 14.82 12.5772 14.8306 12.9052L14.0896 13.104C14.0722 13.1085 14.0559 13.1165 14.0415 13.1273C14.0272 13.1382 14.0151 13.1518 14.0061 13.1673C13.997 13.1829 13.9911 13.2 13.9887 13.2179C13.9863 13.2357 13.9875 13.2539 13.9921 13.2713L14.2764 14.3302C14.2809 14.3477 14.2888 14.364 14.2997 14.3783C14.3106 14.3926 14.3242 14.4047 14.3397 14.4137C14.3553 14.4228 14.3724 14.4287 14.3903 14.4311C14.4081 14.4335 14.4262 14.4324 14.4436 14.4277L15.1854 14.2283C15.3399 14.5182 15.5408 14.7809 15.7801 15.006L15.3969 15.669C15.3877 15.6846 15.3818 15.7018 15.3794 15.7197C15.377 15.7376 15.3782 15.7558 15.3828 15.7732C15.3875 15.7906 15.3956 15.807 15.4066 15.8213C15.4177 15.8356 15.4314 15.8476 15.4471 15.8565L16.3966 16.404C16.4626 16.443 16.5459 16.419 16.5841 16.3545L16.9674 15.69C17.2815 15.785 17.6091 15.8281 17.9371 15.8175L18.1359 16.5585C18.1404 16.5759 18.1483 16.5924 18.1593 16.6068C18.1702 16.6212 18.1839 16.6332 18.1995 16.6423C18.2151 16.6514 18.2324 16.6573 18.2503 16.6596C18.2682 16.662 18.2864 16.6607 18.3039 16.656L19.3621 16.3718C19.3796 16.3673 19.396 16.3593 19.4104 16.3483C19.4248 16.3374 19.4369 16.3238 19.446 16.3082C19.455 16.2925 19.4609 16.2753 19.4633 16.2573C19.4656 16.2394 19.4644 16.2212 19.4596 16.2038L19.2609 15.4628C19.5505 15.3081 19.813 15.1073 20.0379 14.868L20.7016 15.2505C20.7172 15.2597 20.7343 15.2657 20.7522 15.2681C20.7701 15.2706 20.7882 15.2694 20.8057 15.2648C20.8231 15.2602 20.8395 15.2522 20.8538 15.2413C20.8681 15.2303 20.8801 15.2166 20.8891 15.201L21.4366 14.2508C21.4457 14.2352 21.4517 14.218 21.4541 14.2001C21.4565 14.1822 21.4553 14.1639 21.4506 14.1465C21.446 14.1291 21.4379 14.1127 21.4268 14.0984C21.4158 14.0841 21.402 14.0722 21.3864 14.0633L20.7219 13.6808C20.8169 13.3664 20.86 13.0385 20.8494 12.7102L21.5911 12.5123C21.6085 12.5077 21.6249 12.4996 21.6392 12.4887C21.6535 12.4777 21.6655 12.464 21.6745 12.4484C21.6835 12.4328 21.6893 12.4155 21.6916 12.3977C21.6939 12.3798 21.6926 12.3617 21.6879 12.3443L21.4044 11.2853C21.3998 11.2678 21.3919 11.2513 21.381 11.237C21.37 11.2226 21.3564 11.2105 21.3407 11.2014C21.3251 11.1924 21.3078 11.1865 21.2899 11.1841C21.272 11.1818 21.2538 11.183 21.2364 11.1878L20.4946 11.3873C20.3402 11.0977 20.1396 10.8352 19.9006 10.6103L20.2831 9.94652C20.2923 9.93098 20.2982 9.91375 20.3007 9.89589C20.3032 9.87803 20.302 9.85986 20.2974 9.84242C20.2928 9.82499 20.2848 9.80868 20.2739 9.79436C20.2629 9.78004 20.2492 9.76802 20.2336 9.75902L19.2834 9.21153C19.2679 9.20218 19.2507 9.19597 19.2328 9.19341C19.2149 9.19084 19.1966 9.1919 19.1791 9.19652C19.1616 9.20114 19.1453 9.20925 19.131 9.22032C19.1166 9.23139 19.1047 9.2452 19.0959 9.26097L18.7126 9.92628C18.3985 9.83103 18.0709 9.7877 17.7429 9.79802L17.5441 9.05699C17.5396 9.03958 17.5316 9.02326 17.5208 9.00893C17.5099 8.99459 17.4963 8.98256 17.4808 8.9735C17.4652 8.96443 17.448 8.9585 17.4302 8.9561C17.4124 8.9537 17.3942 8.95485 17.3769 8.95949L16.3179 9.24376ZM17.3439 10.9552C17.8352 10.8237 18.3586 10.8927 18.7991 11.147C19.2395 11.4012 19.561 11.82 19.6929 12.3112C19.8246 12.8026 19.7557 13.3263 19.5015 13.7669C19.2472 14.2076 18.8283 14.5292 18.3369 14.661C18.0935 14.7262 17.8397 14.7429 17.5899 14.71C17.34 14.6771 17.0992 14.5953 16.881 14.4693C16.6628 14.3433 16.4715 14.1756 16.3182 13.9757C16.1648 13.7758 16.0523 13.5476 15.9871 13.3042C15.8556 12.8128 15.9247 12.2893 16.1791 11.8488C16.4335 11.4083 16.8525 11.0869 17.3439 10.9552ZM11.7691 1.5C11.7271 1.5002 11.6868 1.51703 11.6572 1.54683C11.6275 1.57663 11.6109 1.61694 11.6109 1.65898V2.54773C11.2404 2.63369 10.8865 2.77961 10.5631 2.97972L9.93611 2.35199C9.92146 2.33714 9.904 2.32534 9.88475 2.31729C9.86551 2.30924 9.84485 2.30511 9.82399 2.30511C9.80312 2.30511 9.78247 2.30924 9.76322 2.31729C9.74397 2.32534 9.72651 2.33714 9.71186 2.35199L8.81411 3.25053C8.79926 3.26519 8.78747 3.28265 8.77942 3.3019C8.77137 3.32114 8.76722 3.34173 8.76722 3.36259C8.76722 3.38346 8.77137 3.40414 8.77942 3.42339C8.78747 3.44263 8.79926 3.46009 8.81411 3.47475L9.44261 4.10326C9.24193 4.4258 9.09525 4.77898 9.00836 5.14879H8.12036C8.09943 5.14859 8.07866 5.1525 8.05928 5.16042C8.0399 5.16834 8.02229 5.18003 8.00748 5.19484C7.99268 5.20964 7.98098 5.22728 7.97306 5.24666C7.96514 5.26604 7.96116 5.28679 7.96136 5.30772V6.57674C7.96136 6.66524 8.03261 6.73576 8.12036 6.73576H9.00911C9.09515 7.10596 9.24107 7.45961 9.44111 7.78276L8.81411 8.41054C8.79935 8.42524 8.78764 8.44266 8.77964 8.4619C8.77165 8.48114 8.76754 8.50176 8.76754 8.5226C8.76754 8.54343 8.77165 8.56406 8.77964 8.5833C8.78764 8.60254 8.79935 8.62005 8.81411 8.63475L9.71186 9.53252C9.72653 9.54748 9.74403 9.55937 9.76335 9.56749C9.78266 9.57561 9.80341 9.57976 9.82436 9.57976C9.84532 9.57976 9.86606 9.57561 9.88538 9.56749C9.90469 9.55937 9.9222 9.54748 9.93686 9.53252L10.5646 8.90401C10.8874 9.10476 11.2408 9.25143 11.6109 9.33824V10.2262C11.6109 10.314 11.6814 10.3845 11.7691 10.3845H13.0389C13.0808 10.3843 13.1209 10.3675 13.1505 10.3379C13.1802 10.3083 13.1969 10.2681 13.1971 10.2262V9.33751C13.5676 9.25155 13.9215 9.10559 14.2449 8.90547L14.8719 9.53252C14.8865 9.54748 14.904 9.55937 14.9233 9.56749C14.9427 9.57561 14.9634 9.57976 14.9844 9.57976C15.0053 9.57976 15.0261 9.57561 15.0454 9.56749C15.0647 9.55937 15.0822 9.54748 15.0969 9.53252L15.9939 8.63475C16.0087 8.62003 16.0205 8.60252 16.0286 8.58321C16.0367 8.5639 16.0408 8.54316 16.0408 8.52223C16.0408 8.50131 16.0367 8.48057 16.0286 8.46126C16.0205 8.44195 16.0087 8.42443 15.9939 8.40971L15.3661 7.78203C15.5666 7.4592 15.713 7.10579 15.7996 6.73576H16.6876C16.7298 6.73576 16.7702 6.71898 16.8 6.68916C16.8299 6.65935 16.8466 6.61891 16.8466 6.57674V5.30772C16.8467 5.28682 16.8427 5.26609 16.8347 5.24675C16.8268 5.22741 16.815 5.2099 16.8003 5.19511C16.7855 5.18033 16.7679 5.16865 16.7486 5.16069C16.7292 5.15273 16.7085 5.14869 16.6876 5.14879H15.7989C15.7128 4.7786 15.5669 4.42495 15.3669 4.10179L15.9939 3.47475C16.0088 3.46008 16.0207 3.44261 16.0288 3.42329C16.037 3.40398 16.0411 3.38318 16.0411 3.36223C16.0411 3.34127 16.037 3.32057 16.0288 3.30125C16.0207 3.28194 16.0088 3.26437 15.9939 3.24971L15.0961 2.35199C15.0815 2.33714 15.064 2.32534 15.0448 2.31729C15.0255 2.30924 15.0049 2.30511 14.984 2.30511C14.9631 2.30511 14.9425 2.30924 14.9232 2.31729C14.904 2.32534 14.8865 2.33714 14.8719 2.35199L14.2434 2.98055C13.9205 2.78005 13.5671 2.63358 13.1971 2.547V1.65898C13.1972 1.63814 13.1932 1.61748 13.1853 1.59819C13.1774 1.5789 13.1657 1.56137 13.151 1.5466C13.1363 1.53183 13.1188 1.52013 13.0996 1.51213C13.0803 1.50413 13.0597 1.5 13.0389 1.5H11.7691ZM12.4044 3.72148C12.9933 3.72168 13.558 3.95572 13.9744 4.37215C14.3909 4.78857 14.6249 5.35336 14.6251 5.94228C14.6251 6.53132 14.3912 7.09627 13.9747 7.51286C13.5583 7.92945 12.9934 8.16351 12.4044 8.16371C11.8152 8.16371 11.2501 7.92966 10.8335 7.51305C10.4169 7.09643 10.1829 6.53145 10.1829 5.94228C10.1831 5.35323 10.4172 4.78832 10.8338 4.37187C11.2504 3.95542 11.8153 3.72148 12.4044 3.72148Z" fill="white"/>
</svg>
